HIERARCHY
ROOT root
{
	OFFSET 0.000000 0.000000 0.000000
	CHANNELS 6 Xposition Yposition Zposition Zrotation Yrotation Xrotation
	JOINT lhip
	{
		OFFSET 0.058581 -0.082280 -0.017664
		CHANNELS 3 Zrotation Yrotation Xrotation
		JOINT lknee
		{
			OFFSET 0.043451 -0.386469 0.008037
			CHANNELS 3 Zrotation Yrotation Xrotation
			JOINT lankle
			{
				OFFSET -0.014790 -0.426874 -0.037428
				CHANNELS 3 Zrotation Yrotation Xrotation
				JOINT ltoe
				{
					OFFSET 0.041054 -0.060286 0.122042
					CHANNELS 3 Zrotation Yrotation Xrotation
					End Site
					{
						OFFSET 0.000000 0.000000 0.000000
					}
				}
			}
		}
	}
	JOINT rhip
	{
		OFFSET -0.060310 -0.090513 -0.013543
		CHANNELS 3 Zrotation Yrotation Xrotation
		JOINT rknee
		{
			OFFSET -0.043257 -0.383688 -0.004843
			CHANNELS 3 Zrotation Yrotation Xrotation
			JOINT rankle
			{
				OFFSET 0.019056 -0.420046 -0.034562
				CHANNELS 3 Zrotation Yrotation Xrotation
				JOINT rtoe
				{
					OFFSET -0.034840 -0.062106 0.130323
					CHANNELS 3 Zrotation Yrotation Xrotation
					End Site
					{
						OFFSET 0.000000 0.000000 0.000000
					}
				}
			}
		}
	}
	JOINT lowerback
	{
		OFFSET 0.004439 0.124404 -0.038385
		CHANNELS 3 Zrotation Yrotation Xrotation
		JOINT upperback
		{
			OFFSET 0.004488 0.137956 0.026820
			CHANNELS 3 Zrotation Yrotation Xrotation
			JOINT chest
			{
				OFFSET -0.002265 0.056032 0.002855
				CHANNELS 3 Zrotation Yrotation Xrotation
				JOINT lowerneck
				{
					OFFSET -0.013390 0.211636 -0.033468
					CHANNELS 3 Zrotation Yrotation Xrotation
					JOINT upperneck
					{
						OFFSET 0.010113 0.088937 0.050410
						CHANNELS 3 Zrotation Yrotation Xrotation
						End Site
						{
							OFFSET 0.000000 0.000000 0.000000
						}
					}
				}
				JOINT lclavicle
				{
					OFFSET 0.071702 0.114000 -0.018898
					CHANNELS 3 Zrotation Yrotation Xrotation
					JOINT lshoulder
					{
						OFFSET 0.122921 0.045205 -0.019046
						CHANNELS 3 Zrotation Yrotation Xrotation
						JOINT lelbow
						{
							OFFSET 0.255332 -0.015649 -0.022946
							CHANNELS 3 Zrotation Yrotation Xrotation
							JOINT lwrist
							{
								OFFSET 0.265709 0.012698 -0.007375
								CHANNELS 3 Zrotation Yrotation Xrotation
								End Site
								{
									OFFSET 0.000000 0.000000 0.000000
								}
							}
						}
					}
				}
				JOINT rclavicle
				{
					OFFSET -0.082954 0.112472 -0.023707
					CHANNELS 3 Zrotation Yrotation Xrotation
					JOINT rshoulder
					{
						OFFSET -0.113228 0.046853 -0.008472
						CHANNELS 3 Zrotation Yrotation Xrotation
						JOINT relbow
						{
							OFFSET -0.260127 -0.014369 -0.031269
							CHANNELS 3 Zrotation Yrotation Xrotation
							JOINT rwrist
							{
								OFFSET -0.269108 0.006794 -0.006027
								CHANNELS 3 Zrotation Yrotation Xrotation
								End Site
								{
									OFFSET 0.000000 0.000000 0.000000
								}
							}
						}
					}
				}
			}
		}
	}
}
MOTION
Frames: 7
Frame Time: 0.033333
-0.039920 1.133536 0.991829 -6.998521 -1.688492 82.257882 -0.168393 2.706828 6.602316 1.054017 -5.265994 4.118720 2.209209 11.958125 -10.205759 0.000000 -0.000000 0.000000 -3.952287 -5.202569 5.953026 -2.947006 -3.203876 0.169026 1.736362 -9.183957 -4.624606 0.000000 -0.000000 0.000000 -3.542172 4.182478 4.195737 -0.969425 -2.228929 13.885001 -1.465960 1.831793 -3.057601 2.545750 4.076856 -1.300133 4.375929 1.802654 -5.918502 -28.076683 -6.398663 2.542445 -45.857693 -5.063123 12.427934 -0.307935 -21.379828 3.843372 -5.147856 -3.528627 5.385439 30.745424 13.498344 9.199550 50.375759 7.294096 12.775779 -5.446040 20.258965 -5.411917 4.063641 5.732682 -2.700394 
-0.039908 1.133766 0.991693 -6.980028 -1.569228 82.180256 -0.044285 2.678035 6.684019 1.065326 -5.377638 4.073992 1.979333 12.106281 -10.227629 0.000000 -0.000000 0.000000 -3.814539 -5.192071 6.042609 -2.949177 -3.057009 0.325658 2.024801 -9.631845 -6.116504 0.000000 -0.000000 0.000000 -3.162682 4.197126 4.354968 -1.169309 -2.224416 13.586617 -1.533909 1.738953 -2.779218 2.445348 4.332766 -1.930222 4.982095 1.580704 -5.633123 -28.099493 -6.846561 2.522355 -45.703911 -4.749225 12.345411 -0.124472 -21.481252 3.537993 -5.388212 -3.610659 4.953030 30.857071 13.743841 9.269158 50.175254 7.170427 12.795353 -5.216597 20.416076 -5.689884 4.729567 5.860581 -2.593024 
-0.040054 1.134449 0.991686 -7.183325 -1.512541 82.312591 0.053747 2.728836 6.492438 1.045463 -5.281350 4.156371 1.849118 12.123123 -10.219547 0.000000 -0.000000 0.000000 -3.804868 -5.444490 5.727216 -2.846254 -2.713323 0.593105 2.841689 -9.921201 -8.142089 0.000000 -0.000000 0.000000 -2.897126 4.269718 4.372867 -1.291419 -2.204284 13.417816 -1.730334 1.792425 -2.566018 2.471917 5.036875 -3.244062 5.864047 1.468809 -5.173011 -28.209880 -6.951487 1.922010 -45.326093 -4.375711 12.670903 -0.168222 -21.812406 3.285311 -5.259682 -3.389204 4.792936 30.835326 13.642361 8.731361 50.203652 7.003182 13.294812 -4.780954 20.698463 -5.884985 5.434665 5.828096 -2.500589 
-0.040547 1.134904 0.991008 -7.178286 -1.543148 82.274748 0.132352 2.811273 6.519332 0.962135 -5.384930 4.215821 1.776803 12.061744 -10.213374 0.000000 -0.000000 0.000000 -3.883206 -5.313783 5.811510 -2.689053 -2.794544 0.470792 3.575506 -10.195961 -9.457325 0.000000 -0.000000 0.000000 -2.883365 4.185560 4.613189 -1.342176 -2.191894 13.177125 -1.663161 1.676675 -2.649726 2.440194 4.691064 -2.657989 5.707491 1.603441 -5.284027 -28.111259 -6.900216 1.881258 -45.395773 -4.219155 12.694229 0.021640 -22.021017 2.981377 -5.218020 -3.497097 4.243040 30.316810 13.573000 8.598511 50.932850 6.927492 13.547925 -4.768649 21.038502 -5.867119 5.338636 5.935959 -2.838545 
-0.040729 1.135016 0.990867 -7.181990 -1.530500 82.291092 0.173020 2.798861 6.482430 0.940939 -5.360944 4.258170 1.817015 12.035273 -10.239132 0.000000 -0.000000 0.000000 -3.859658 -5.312791 5.794951 -2.697033 -2.810277 0.446711 3.600100 -10.184398 -9.433122 0.000000 -0.000000 0.000000 -2.908372 4.183496 4.621014 -1.330228 -2.195933 13.097944 -1.651661 1.662857 -2.601257 2.533999 4.677793 -2.662957 5.692878 1.584984 -5.211291 -28.056692 -6.847542 1.826424 -45.435164 -4.233575 12.690738 0.068255 -22.029423 2.997878 -5.290626 -3.511110 4.264154 30.231651 13.503747 8.515967 51.081170 6.924326 13.599901 -4.882447 21.152212 -5.695746 5.504796 5.970993 -2.691123 
-0.041057 1.135291 0.990576 -7.202924 -1.513205 82.344459 0.242982 2.730025 6.385536 0.874392 -5.309384 4.325441 1.862788 12.059062 -10.253080 0.000000 -0.000000 0.000000 -3.812599 -5.262821 5.710373 -2.715041 -2.853694 0.448149 3.434858 -10.217305 -9.405397 0.000000 -0.000000 0.000000 -2.975847 4.188715 4.587000 -1.304428 -2.181653 12.981411 -1.605001 1.639688 -2.488809 2.646366 4.671274 -2.652303 5.719618 1.646031 -5.212723 -27.953681 -6.836305 1.843471 -45.524833 -4.320683 12.661861 0.188994 -21.982558 2.990913 -5.436647 -3.533833 4.170086 30.073875 13.490693 8.467356 51.334581 6.925725 13.661257 -4.984534 21.154142 -5.585845 5.506510 6.085301 -2.911985 
-0.041159 1.135346 0.990397 -7.195253 -1.547193 82.300096 0.200930 2.723383 6.462705 0.902395 -5.350952 4.284153 1.860755 12.046526 -10.231576 0.000000 -0.000000 0.000000 -3.853486 -5.296677 5.776895 -2.706918 -2.806468 0.391295 3.520492 -10.204886 -9.332738 0.000000 -0.000000 0.000000 -3.015549 4.191970 4.608275 -1.319882 -2.182801 12.940513 -1.611547 1.615330 -2.389343 2.762718 4.626934 -2.691152 5.776669 1.640892 -5.123297 -27.960917 -6.801688 1.810746 -45.457920 -4.377806 12.653343 0.156963 -22.005890 3.074587 -5.323755 -3.461130 4.176203 30.025402 13.451091 8.416535 51.470582 6.966496 13.698975 -5.036045 21.173925 -5.603875 5.293487 6.022062 -2.999677 
